# xmcd
#
# Track frame offsets: 
#        150
#        16190
#        34247
#        49637
#        65142
#        79440
#        96457
#        112397
#        122850
#        135410
#        147057
#        163855
#        181372
#        195220
#
# Disc length: 2795 seconds
#
# Revision: 0
# Processed by: cddbd v1.5.1PL0 Copyright (c) Steve Scherf et al.
# Submitted via: ExactAudioCopy v0.95a5
#
DISCID=ca0ae90e
DTITLE=Marcello and Maurino - Mil anos pra te conquistar
DYEAR=2003
DGENRE=Sertanejo
TTITLE0=Mil anos pra te conquistar
TTITLE1=Meu amor
TTITLE2=Verdades e Mentiras
TTITLE3=Zero a zero
TTITLE4=Tira de mim essa dor
TTITLE5=Como vou ficar
TTITLE6=Nada vai ter fim
TTITLE7=O campeao
TTITLE8=Forro gostoso
TTITLE9=Mais que saudade dela
TTITLE10=Vai coracao
TTITLE11=Tudo bem
TTITLE12=Moto boy
TTITLE13=Baile de Rodeio
EXTD=
EXTT0=
EXTT1=
EXTT2=
EXTT3=
EXTT4=
EXTT5=
EXTT6=
EXTT7=
EXTT8=
EXTT9=
EXTT10=
EXTT11=
EXTT12=
EXTT13=
PLAYORDER=
